<svg width="400" height="300" viewBox="0 0 400 300" fill="none" xmlns="http://www.w3.org/2000/svg">
  <!-- Trophy -->
  <g transform="translate(200, 150)">
    <!-- Trophy cup -->
    <path d="M -40,-60 L -30,-20 L 30,-20 L 40,-60 Z" fill="#FFD700"/>
    <rect x="-30" y="-20" width="60" height="10" fill="#FFA500"/>
    
    <!-- Trophy base -->
    <rect x="-20" y="-10" width="40" height="8" fill="#FFD700"/>
    <rect x="-25" y="-2" width="50" height="6" fill="#FFA500"/>
    <rect x="-30" y="4" width="60" height="8" rx="2" fill="#FFD700"/>
    
    <!-- Trophy handles -->
    <path d="M -40,-50 Q -60,-45 -60,-30 Q -60,-20 -50,-20" stroke="#FFD700" stroke-width="6" fill="none"/>
    <path d="M 40,-50 Q 60,-45 60,-30 Q 60,-20 50,-20" stroke="#FFD700" stroke-width="6" fill="none"/>
    
    <!-- Star on trophy -->
    <path d="M 0,-45 L 3,-38 L 10,-38 L 5,-33 L 7,-26 L 0,-30 L -7,-26 L -5,-33 L -10,-38 L -3,-38 Z" fill="#FFFFFF"/>
  </g>
  
  <!-- Confetti -->
  <rect x="50" y="30" width="8" height="8" fill="#A3FF12" transform="rotate(45 54 34)"/>
  <rect x="340" y="50" width="8" height="8" fill="#FF5C47" transform="rotate(30 344 54)"/>
  <rect x="80" y="80" width="6" height="6" fill="#FF69B4" transform="rotate(60 83 83)"/>
  <rect x="310" y="100" width="6" height="6" fill="#3D1A4A" transform="rotate(15 313 103)"/>
  <rect x="60" y="200" width="8" height="8" fill="#A3FF12" transform="rotate(75 64 204)"/>
  <rect x="330" y="220" width="8" height="8" fill="#FF5C47" transform="rotate(20 334 224)"/>
  
  <!-- Circles -->
  <circle cx="100" cy="50" r="5" fill="#FF69B4"/>
  <circle cx="300" cy="70" r="6" fill="#A3FF12"/>
  <circle cx="90" cy="240" r="4" fill="#3D1A4A"/>
  <circle cx="320" cy="250" r="5" fill="#FF5C47"/>
  
  <!-- Streamers -->
  <path d="M 40,20 Q 50,40 45,60 Q 40,80 50,100" stroke="#A3FF12" stroke-width="4" stroke-linecap="round" fill="none"/>
  <path d="M 360,30 Q 350,50 355,70 Q 360,90 350,110" stroke="#FF5C47" stroke-width="4" stroke-linecap="round" fill="none"/>
  
  <!-- Text -->
  <text x="200" y="250" font-family="'Oswald', sans-serif" font-size="32" font-weight="700" fill="#A3FF12" text-anchor="middle">WINNER!</text>
</svg>
